<svg xmlns="http://www.w3.org/2000/svg" width="10.967" height="12.301" viewBox="0 0 10.967 12.301">
  <path id="Union_8" data-name="Union 8" d="M-990.078-8306a2.9,2.9,0,0,1-2.9-2.9v-5.993h-.444a.444.444,0,0,1-.444-.444.444.444,0,0,1,.444-.444h2.667A2.222,2.222,0,0,1-988.53-8318a2.222,2.222,0,0,1,2.223,2.222h2.667a.445.445,0,0,1,.444.444.444.444,0,0,1-.444.444h-.444v5.993a2.9,2.9,0,0,1-2.9,2.9Zm-2.007-2.9a2.009,2.009,0,0,0,2.007,2.008h3.1a2.01,2.01,0,0,0,2.008-2.008v-5.993h-7.112Zm2.222-6.882h2.667a1.333,1.333,0,0,0-1.333-1.333A1.334,1.334,0,0,0-989.863-8315.778Zm2.222,6.223v-3.11a.445.445,0,0,1,.444-.445.445.445,0,0,1,.444.445v3.11a.444.444,0,0,1-.444.444A.444.444,0,0,1-987.641-8309.556Zm-2.667,0v-3.11a.445.445,0,0,1,.444-.445.445.445,0,0,1,.444.445v3.11a.444.444,0,0,1-.444.444A.444.444,0,0,1-990.307-8309.556Z" transform="translate(994.013 8318.15)" fill="#e02020" stroke="#e02020" stroke-width="0.3"/>
</svg>
