<svg xmlns="http://www.w3.org/2000/svg" width="12.417" height="12.3" viewBox="0 0 12.417 12.3">
  <path id="Union_7" data-name="Union 7" d="M3.412,12A3.416,3.416,0,0,1,0,8.589V3.8A3.415,3.415,0,0,1,3.412.385H6.5a.465.465,0,1,1,0,.929H3.412A2.486,2.486,0,0,0,.929,3.8V8.589a2.486,2.486,0,0,0,2.483,2.483H8.2a2.486,2.486,0,0,0,2.483-2.483V5.5a.465.465,0,1,1,.929,0V8.589A3.415,3.415,0,0,1,8.2,12Zm1.7-4.646a.465.465,0,0,1-.465-.465V5.031A.463.463,0,0,1,4.782,4.7L8.964.521a1.779,1.779,0,0,1,2.515,2.515L7.3,7.218a.463.463,0,0,1-.328.136Zm.465-2.131v1.2h1.2l3.252-3.252-1.2-1.2ZM9.621,1.178l-.136.136,1.2,1.2.136-.136a.849.849,0,1,0-1.2-1.2Z" transform="translate(0.15 0.15)" fill="#ed0c6e" stroke="#ed0c6e" stroke-width="0.3"/>
</svg>
