<svg xmlns="http://www.w3.org/2000/svg" width="12" height="10.823" viewBox="0 0 12 10.823">
  <path id="Path_317" data-name="Path 317" d="M16.76,6.108a.571.571,0,0,0-.514-.08L7.766,8.857H5.571A.571.571,0,0,0,5,9.428v3.429a.571.571,0,0,0,.571.571h.714l.383,2.9a.571.571,0,0,0,.571.5h.046l2.286-.3a.571.571,0,0,0,.491-.64l-.251-1.909,6.469,1.714a.571.571,0,0,0,.72-.549V6.571a.571.571,0,0,0-.24-.463ZM7.286,12.286H6.143V10H7.286Zm.44,3.326L7.44,13.428h.343l.84.223.234,1.811ZM15.857,14.4,8.429,12.417V9.84l7.429-2.474Z" transform="translate(-5 -6)" fill="#ed0c6e"/>
</svg>
