<svg xmlns="http://www.w3.org/2000/svg" width="13.511" height="14" viewBox="0 0 13.511 14">
  <path id="Union_4" data-name="Union 4" d="M7.2,11.165a2.2,2.2,0,0,1,2.835-3.328,2.193,2.193,0,0,1,2.836,3.328L10.032,14Zm.913-2.182a.9.9,0,0,0,0,1.267l1.922,1.911,1.922-1.911a.9.9,0,0,0-1.267-1.267l-.654.654-.654-.654a.9.9,0,0,0-1.267,0ZM2.4,11.56A2.4,2.4,0,0,1,0,9.16V2.4A2.4,2.4,0,0,1,2.4,0H8.506a2.4,2.4,0,0,1,2.4,2.4V6.107H9.6V2.4A1.091,1.091,0,0,0,8.506,1.309H2.4A1.091,1.091,0,0,0,1.309,2.4V9.16A1.091,1.091,0,0,0,2.4,10.251H5.452V11.56Zm.436-3.708V6.543H5.889V7.852Zm0-2.835V3.708H8.069V5.017Z" fill="#ed0c6e"/>
</svg>
